<svg xmlns="http://www.w3.org/2000/svg" version="1.2" viewBox="0 0 1600 487" width="1600" height="487">
	<title>Logitech_logo-svg</title>
	<style>
		.s0 { fill: #ffffff } 
	</style>
	<g id="layer1">
		<path id="path3008" class="s0" d="m0.8 7.9h59v336.1h-59z"/>
		<path id="path3010" fill-rule="evenodd" class="s0" d="m338.6 224.8c0 75.5-59 125.8-127 125.8-71.7 0-128.7-51.2-128.7-125.6 0-66.6 52.4-124.8 128.1-124.8 78.7 0 127.6 61.2 127.6 124.6zm-195.7 0.5c0 34.9 26.4 68.2 68.4 68.2 35.6 0 67.8-28.8 67.8-68.3 0-37.2-29.2-68.1-68.8-68.1-37.6 0-67.4 30-67.4 68.2z"/>
		<path id="path3012" fill-rule="evenodd" class="s0" d="m527.9 107.2h83.9v47.9l-16.4 5.6c0 0 19.2 19.7 19.2 64.1 0 75.5-59 125.8-127 125.8-71.7 0-128.7-51.2-128.7-125.6 0-66.6 52.4-124.8 128.1-124.8 22.7 0 40.9 7 40.9 7zm-109 118.1c0 34.9 26.4 68.2 68.4 68.2 35.6 0 67.8-28.8 67.8-68.3 0-37.2-29.2-68.1-68.8-68.1-37.6 0-67.4 30-67.4 68.2z"/>
		<path id="path3014" class="s0" d="m614.2 360.4c0 75.5-59 125.6-127.1 125.6-71.6 0-128.6-51.2-128.6-125.6h59.9c0 34.9 26.5 68.6 68.5 68.6 35.6 0 67.7-29.1 67.7-68.6z"/>
		<path id="path3016" class="s0" d="m638.3 107.2h59v236.8h-59z"/>
		<path id="path3018" class="s0" d="m754.6 344v-183.8h-31.6v-53h31.6v-72.8h59.1v72.8h32.5v53h-32.5v183.8z"/>
		<circle id="path3020" class="s0" cx="667.7" cy="39.9" r="39.1"/>
		<path id="path3022" fill-rule="evenodd" class="s0" d="m1100.2 233v16.2h-183.9c8.6 31.9 33.5 49.2 64.6 49.2 37.3 0 67.1-32.1 67.1-32.1l39.5 39.5c0 0-35.4 44.9-107.3 44.9-77.2 0-126.3-52.4-126.3-123.6 0-68.8 49-127.1 125-127.1 83.8 0 121.3 68.1 121.3 133zm-185.5-31.7h123.6c-6.2-34.7-34-49.3-61.2-49.3-36.2 0-57.5 24.9-62.4 49.3z"/>
		<path id="path3024" class="s0" d="m1247.9 350.8c-76.3 0-128.2-58.1-128.2-126.6 0-70.7 58.7-124.2 128-124.2 66.9 0 101.2 47.2 101.2 47.2l-41.2 41c0 0-23.8-30.8-60.3-30.8-40.4 0-68.1 30.9-68.1 67.7 0 38.8 29.4 68.6 67.6 68.6 37.1 0 60.8-30.8 60.8-30.8l41.6 41c0 0-34 46.9-101.4 46.9z"/>
		<path id="path3026" class="s0" d="m1370.7 344.2v-337.1h59.1v123.8c0 0 22.6-30.9 71.8-30.9 61.8 0 97.6 45.9 97.6 104.7v139.5h-59v-130.6c0-39.5-24.6-55.8-51.9-55.8-31 0-58.5 17.6-58.5 58.9v127.5z"/>
	</g>
</svg>