<svg width="123" height="123" viewBox="0 0 123 123" fill="none" xmlns="http://www.w3.org/2000/svg">
<g clip-path="url(#clip0_1350_2)">
<path d="M49.0601 1.27006C51.2301 0.820064 53.4001 0.500064 55.5401 0.290064C57.7401 0.0800644 59.9201 -0.0199356 62.0701 6.4411e-05C63.2801 0.0100644 64.2501 1.00006 64.2401 2.21006C64.2301 3.14006 63.6401 3.93006 62.8201 4.24006C53.6701 7.84006 46.3501 14.5501 41.8601 22.8601C37.4401 31.0301 35.7601 40.7401 37.7701 50.5401L37.7801 50.6101C40.0701 61.6701 46.6101 70.7601 55.3601 76.5201C64.1001 82.2801 75.0301 84.7001 86.0901 82.4401L86.1601 82.4301C94.1201 80.7801 101.05 76.9401 106.46 71.6501C112.06 66.1801 116.02 59.1701 117.79 51.4901C118.06 50.3101 119.24 49.5801 120.41 49.8501C121.3 50.0601 121.94 50.7801 122.08 51.6301C124.72 67.8301 120.73 83.7001 112.02 96.3401C103.35 108.92 89.9901 118.31 73.8401 121.63C57.2201 125.05 40.7901 121.41 27.6601 112.77C14.5201 104.1 4.69013 90.4501 1.27013 73.8301C-2.06987 57.6001 1.32013 41.5501 9.53013 28.5801C17.7801 15.5701 30.8801 5.64006 46.9101 1.75006C47.2201 1.67006 47.5801 1.59006 47.9701 1.50006H47.9801L49.0601 1.27006Z" fill="#F5F5F5"/>
</g>
<defs>
<clipPath id="clip0_1350_2">
<rect width="122.88" height="122.89" fill="white"/>
</clipPath>
</defs>
</svg>
