<svg width="123" height="123" viewBox="0 0 123 123" fill="none" xmlns="http://www.w3.org/2000/svg">
<g clip-path="url(#clip0_1350_5)">
<path d="M30.0002 13.21C29.7316 12.7631 29.5546 12.2672 29.4795 11.7512C29.4044 11.2353 29.4328 10.7095 29.5629 10.2046C29.693 9.69965 29.9223 9.22567 30.2374 8.81024C30.5525 8.39481 30.9471 8.04624 31.3983 7.78484C31.8494 7.52343 32.3481 7.35442 32.8652 7.28764C33.3824 7.22086 33.9076 7.25766 34.4104 7.39588C34.9131 7.53411 35.3833 7.771 35.7937 8.09275C36.204 8.41451 36.5461 8.8147 36.8002 9.27L41.8602 18C42.3907 18.9031 42.5406 19.9799 42.2772 20.9935C42.0137 22.0071 41.3583 22.8746 40.4552 23.405C39.5522 23.9354 38.4754 24.0854 37.4618 23.8219C36.4481 23.5584 35.5807 22.9031 35.0502 22L30.0002 13.21ZM61.4502 26.21C69.6002 26.2163 77.496 29.0481 83.7923 34.2229C90.0886 39.3978 94.396 46.5955 95.9806 54.59C97.5653 62.5845 96.3292 70.881 92.4829 78.0663C88.6366 85.2516 82.4181 90.8811 74.8867 93.9958C67.3553 97.1105 58.9771 97.5176 51.1792 95.1478C43.3813 92.778 36.6463 87.778 32.1215 80.9995C27.5966 74.2209 25.5619 66.0833 26.364 57.9728C27.1661 49.8624 30.7553 42.2809 36.5202 36.52C39.7893 33.2429 43.6737 30.6441 47.9503 28.8731C52.227 27.102 56.8114 26.1936 61.4402 26.2L61.4502 26.21ZM58.3102 4C58.2833 3.46523 58.3654 2.93056 58.5515 2.42849C58.7376 1.92642 59.0238 1.46742 59.3928 1.0794C59.7618 0.691371 60.2058 0.382414 60.6979 0.171299C61.1899 -0.0398166 61.7198 -0.148682 62.2552 -0.148682C62.7907 -0.148682 63.3206 -0.0398166 63.8126 0.171299C64.3047 0.382414 64.7487 0.691371 65.1177 1.0794C65.4867 1.46742 65.7729 1.92642 65.959 2.42849C66.1451 2.93056 66.2272 3.46523 66.2002 4V14.06C66.2272 14.5948 66.1451 15.1294 65.959 15.6315C65.7729 16.1336 65.4867 16.5926 65.1177 16.9806C64.7487 17.3686 64.3047 17.6776 63.8126 17.8887C63.3206 18.0998 62.7907 18.2087 62.2552 18.2087C61.7198 18.2087 61.1899 18.0998 60.6979 17.8887C60.2058 17.6776 59.7618 17.3686 59.3928 16.9806C59.0238 16.5926 58.7376 16.1336 58.5515 15.6315C58.3654 15.1294 58.2833 14.5948 58.3102 14.06V4ZM87.4902 10.1C87.7295 9.62193 88.0639 9.19772 88.4728 8.85331C88.8817 8.5089 89.3565 8.25154 89.8683 8.09697C90.3801 7.94241 90.9181 7.89389 91.4492 7.95438C91.9804 8.01488 92.4937 8.18311 92.9576 8.4488C93.4215 8.71448 93.8264 9.07203 94.1474 9.49956C94.4683 9.92709 94.6987 10.4156 94.8244 10.9353C94.9501 11.4549 94.9684 11.9947 94.8783 12.5217C94.7882 13.0486 94.5915 13.5517 94.3002 14L89.2402 22.76C88.9899 23.2206 88.65 23.6264 88.2405 23.9537C87.831 24.2809 87.3602 24.5229 86.8557 24.6654C86.3512 24.8079 85.8234 24.8481 85.3032 24.7835C84.783 24.719 84.2809 24.551 83.8266 24.2895C83.3723 24.028 82.9749 23.6782 82.6578 23.2608C82.3407 22.8434 82.1103 22.3668 81.9802 21.859C81.8501 21.3512 81.8229 20.8225 81.9002 20.304C81.9774 19.7855 82.1577 19.2878 82.4302 18.84L87.4902 10.09V10.1ZM109.67 30C110.573 29.4775 111.647 29.3352 112.655 29.6043C113.663 29.8734 114.523 30.5319 115.045 31.435C115.568 32.3381 115.71 33.4117 115.441 34.4197C115.172 35.4277 114.513 36.2875 113.61 36.81L104.86 41.87C104.413 42.1326 103.919 42.3046 103.405 42.3762C102.891 42.4477 102.369 42.4174 101.867 42.2869C101.365 42.1564 100.894 41.9284 100.48 41.6158C100.066 41.3032 99.7179 40.9122 99.4552 40.465C99.1926 40.0178 99.0206 39.5233 98.9491 39.0097C98.8775 38.4961 98.9079 37.9734 99.0383 37.4715C99.1688 36.9696 99.3968 36.4983 99.7094 36.0846C100.022 35.6708 100.413 35.3226 100.86 35.06L109.67 30ZM118.93 58.32C119.465 58.2931 120 58.3751 120.502 58.5612C121.004 58.7473 121.463 59.0336 121.851 59.4025C122.239 59.7715 122.548 60.2155 122.759 60.7076C122.97 61.1997 123.079 61.7295 123.079 62.265C123.079 62.8005 122.97 63.3303 122.759 63.8224C122.548 64.3145 122.239 64.7585 121.851 65.1275C121.463 65.4964 121.004 65.7827 120.502 65.9688C120 66.1549 119.465 66.2369 118.93 66.21H108.82C108.285 66.2369 107.751 66.1549 107.249 65.9688C106.747 65.7827 106.288 65.4964 105.9 65.1275C105.512 64.7585 105.203 64.3145 104.992 63.8224C104.78 63.3303 104.672 62.8005 104.672 62.265C104.672 61.7295 104.78 61.1997 104.992 60.7076C105.203 60.2155 105.512 59.7715 105.9 59.4025C106.288 59.0336 106.747 58.7473 107.249 58.5612C107.751 58.3751 108.285 58.2931 108.82 58.32H118.93ZM112.78 87.5C113.251 87.744 113.668 88.0807 114.005 88.49C114.343 88.8993 114.594 89.3727 114.743 89.8816C114.893 90.3904 114.938 90.9243 114.875 91.451C114.813 91.9778 114.645 92.4864 114.381 92.9464C114.117 93.4064 113.762 93.8081 113.339 94.1275C112.915 94.4468 112.431 94.6771 111.917 94.8045C111.402 94.9319 110.866 94.9538 110.343 94.8688C109.819 94.7838 109.318 94.5937 108.87 94.31L100.11 89.25C99.6367 89.0085 99.2171 88.6735 98.8767 88.2651C98.5364 87.8568 98.2824 87.3837 98.1302 86.8744C97.978 86.3651 97.9306 85.8302 97.9911 85.302C98.0515 84.7739 98.2185 84.2636 98.4819 83.8018C98.7452 83.3401 99.0995 82.9366 99.5233 82.6157C99.9471 82.2948 100.432 82.0633 100.948 81.935C101.463 81.8068 102 81.7845 102.525 81.8696C103.049 81.9547 103.551 82.1453 104 82.43L112.75 87.49L112.78 87.5ZM92.8902 109.67C93.4127 110.573 93.5551 111.647 93.2859 112.655C93.0168 113.663 92.3583 114.523 91.4552 115.045C90.5522 115.567 89.4786 115.71 88.4705 115.441C87.4625 115.172 86.6027 114.513 86.0802 113.61L81.0002 104.86C80.7376 104.413 80.5656 103.918 80.4941 103.405C80.4225 102.891 80.4529 102.368 80.5833 101.867C80.7138 101.365 80.9418 100.893 81.2544 100.48C81.5671 100.066 81.9581 99.7176 82.4052 99.455C83.3083 98.9246 84.3851 98.7746 85.3987 99.0381C85.9006 99.1686 86.3719 99.3966 86.7857 99.7092C87.1995 100.022 87.5476 100.413 87.8102 100.86L92.8702 109.62L92.8902 109.67ZM64.5702 118.93C64.5972 119.465 64.5151 119.999 64.329 120.502C64.1429 121.004 63.8567 121.463 63.4877 121.851C63.1187 122.239 62.6747 122.548 62.1826 122.759C61.6906 122.97 61.1607 123.079 60.6252 123.079C60.0898 123.079 59.5599 122.97 59.0679 122.759C58.5758 122.548 58.1318 122.239 57.7628 121.851C57.3938 121.463 57.1076 121.004 56.9215 120.502C56.7354 119.999 56.6533 119.465 56.6802 118.93V108.82C56.6533 108.285 56.7354 107.751 56.9215 107.248C57.1076 106.746 57.3938 106.287 57.7628 105.899C58.1318 105.511 58.5758 105.202 59.0679 104.991C59.5599 104.78 60.0898 104.671 60.6252 104.671C61.1607 104.671 61.6906 104.78 62.1826 104.991C62.6747 105.202 63.1187 105.511 63.4877 105.899C63.8567 106.287 64.1429 106.746 64.329 107.248C64.5151 107.751 64.5972 108.285 64.5702 108.82V118.93V118.93ZM35.3902 112.78C34.8484 113.636 33.9971 114.249 33.0138 114.493C32.0306 114.736 30.9914 114.59 30.113 114.086C29.2346 113.582 28.5848 112.758 28.2993 111.786C28.0137 110.814 28.1143 109.769 28.5802 108.87L33.6402 100.11C33.8756 99.6262 34.2077 99.1958 34.6161 98.8455C35.0246 98.4953 35.5006 98.2326 36.0146 98.0739C36.5287 97.9151 37.0699 97.8635 37.6047 97.9224C38.1395 97.9814 38.6565 98.1494 39.1237 98.4163C39.5909 98.6832 39.9983 99.0431 40.3207 99.4739C40.6431 99.9046 40.8737 100.397 40.998 100.92C41.1224 101.444 41.1379 101.987 41.0437 102.517C40.9495 103.047 40.7475 103.552 40.4502 104L35.3902 112.75V112.78ZM13.2102 92.89C12.7631 93.1487 12.2694 93.3168 11.7573 93.3847C11.2451 93.4526 10.7247 93.419 10.2255 93.2857C9.72643 93.1524 9.25845 92.9222 8.84832 92.6081C8.43819 92.294 8.09395 91.9022 7.83525 91.455C7.57654 91.0079 7.40844 90.5141 7.34055 90.002C7.27266 89.4899 7.30629 88.9694 7.43955 88.4703C7.5728 87.9712 7.80305 87.5032 8.11717 87.0931C8.43128 86.6829 8.8231 86.3387 9.27025 86.08L18.0002 81C18.4487 80.7374 18.9445 80.5656 19.4594 80.4946C19.9742 80.4236 20.498 80.4546 21.0008 80.586C21.5036 80.7174 21.9757 80.9466 22.3899 81.2604C22.8042 81.5742 23.1526 81.9665 23.4152 82.415C23.6779 82.8635 23.8496 83.3593 23.9207 83.8741C23.9917 84.3889 23.9606 84.9127 23.8292 85.4156C23.6978 85.9184 23.4687 86.3904 23.1549 86.8047C22.8411 87.219 22.4487 87.5674 22.0002 87.83L13.2402 92.89H13.2102ZM4.00025 64.57C3.46547 64.5969 2.93081 64.5149 2.42873 64.3288C1.92666 64.1427 1.46767 63.8564 1.07964 63.4875C0.691615 63.1185 0.382658 62.6745 0.171543 62.1824C-0.0395724 61.6903 -0.148437 61.1605 -0.148438 60.625C-0.148437 60.0895 -0.0395724 59.5597 0.171543 59.0676C0.382658 58.5755 0.691615 58.1315 1.07964 57.7625C1.46767 57.3936 1.92666 57.1073 2.42873 56.9212C2.93081 56.7351 3.46547 56.6531 4.00025 56.68H14.0602C14.595 56.6531 15.1297 56.7351 15.6318 56.9212C16.1338 57.1073 16.5928 57.3936 16.9809 57.7625C17.3689 58.1315 17.6778 58.5755 17.8889 59.0676C18.1001 59.5597 18.2089 60.0895 18.2089 60.625C18.2089 61.1605 18.1001 61.6903 17.8889 62.1824C17.6778 62.6745 17.3689 63.1185 16.9809 63.4875C16.5928 63.8564 16.1338 64.1427 15.6318 64.3288C15.1297 64.5149 14.595 64.5969 14.0602 64.57H4.00025ZM10.1002 35.39C9.62218 35.1507 9.19796 34.8164 8.85355 34.4075C8.50914 33.9986 8.25178 33.5237 8.09722 33.0119C7.94265 32.5001 7.89413 31.9622 7.95463 31.431C8.01512 30.8998 8.18336 30.3866 8.44904 29.9226C8.71473 29.4587 9.07227 29.0539 9.4998 28.7329C9.92734 28.4119 10.4159 28.1815 10.9355 28.0558C11.4551 27.9302 11.9949 27.9118 12.5219 28.0019C13.0489 28.0921 13.5519 28.2888 14.0002 28.58L22.7602 33.64C23.2208 33.8903 23.6267 34.2302 23.9539 34.6397C24.2812 35.0492 24.5231 35.5201 24.6657 36.0245C24.8082 36.529 24.8484 37.0569 24.7838 37.5771C24.7192 38.0973 24.5512 38.5993 24.2897 39.0536C24.0282 39.5079 23.6785 39.9053 23.2611 40.2224C22.8436 40.5395 22.367 40.7699 21.8592 40.9001C21.3514 41.0302 20.8227 41.0574 20.3043 40.9801C19.7858 40.9028 19.288 40.7226 18.8402 40.45L10.1002 35.39Z" fill="#F9CC30"/>
</g>
<defs>
<clipPath id="clip0_1350_5">
<rect width="122.88" height="122.88" fill="white"/>
</clipPath>
</defs>
</svg>
